<?xml version="1.0" encoding="UTF-8"?>
<svg width="28px" height="46px" viewBox="0 0 28 46" version="1.1" xmlns="http://www.w3.org/2000/svg" xmlns:xlink="http://www.w3.org/1999/xlink">
    <!-- Generator: Sketch 45.2 (43514) - http://www.bohemiancoding.com/sketch -->
    <title>icon_小火箭</title>
    <desc>Created with Sketch.</desc>
    <defs></defs>
    <g id="05关于（加入）我们" stroke="none" stroke-width="1" fill="none" fill-rule="evenodd">
        <g id="01关于我们" transform="translate(-946.000000, -1401.000000)">
            <g id="05大事记" transform="translate(559.000000, 1283.000000)">
                <g id="Group-2" transform="translate(0.000000, 118.000000)">
                    <g id="icon_小火箭" transform="translate(387.000000, 0.000000)">
                        <path d="M27.2719,28.5 C27.2719,23.813 22.2719,20.875 22.2719,20.875 C22.2719,8 13.6469,0 13.6469,0 C13.6469,0 5.0219,8 5.0219,20.875 C5.0219,20.875 0.0219,23.813 0.0219,28.5 C0.0219,33.187 -0.3531,37.938 2.0219,37.938 C3.8859,37.938 5.1989,36.357 6.2839,35.044 C6.7099,34.527 7.0679,33.622 7.7419,33.317 C8.7809,32.846 9.2589,33.873 9.8889,34.499 C10.8879,35.489 12.2819,36.208 13.6469,36.208 C15.0109,36.208 16.4049,35.489 17.4039,34.499 C18.0339,33.873 18.5119,32.846 19.5509,33.317 C20.2249,33.622 20.5829,34.527 21.0089,35.044 C22.0939,36.357 23.4069,37.938 25.2709,37.938 C27.6469,37.938 27.2719,33.187 27.2719,28.5" id="Fill-1" fill="#45495B"></path>
                        <path d="M19.5287593,37.3203 C18.6854095,36.7063 17.6850587,37.2383 16.9202093,37.6983 C16.0195754,38.2393 14.9895217,38.7553 13.8852107,38.7503 C12.7734741,38.7463 11.8569279,38.1093 10.9478073,37.5873 C10.2126609,37.1633 9.25898603,36.7523 8.47928524,37.3203 C7.45135317,38.0683 7.68155055,40.2163 8.32334508,41.9093 C9.25049949,44.3613 10.3739051,41.3683 11.7190216,42.0913 C12.9506306,42.7533 13.0142796,45.8333 14.0040223,45.8333 C15.0372584,45.8333 15.057414,42.7533 16.289023,42.0913 C17.6330786,41.3683 18.6960177,44.3403 19.6846995,41.9093 C20.2957303,40.4103 20.5556306,38.0683 19.5287593,37.3203" id="Fill-6" fill="#45495B"></path>
                        <path d="M17.7719,16.75 C17.7719,19.028 15.9249,20.875 13.6469,20.875 C11.3689,20.875 9.5219,19.028 9.5219,16.75 C9.5219,14.472 11.3689,12.625 13.6469,12.625 C15.9249,12.625 17.7719,14.472 17.7719,16.75" id="Fill-4" fill="#FFFFFF"></path>
                    </g>
                </g>
            </g>
        </g>
    </g>
</svg>